Coordinates
version=1
nRows=17
nColumns=40
inDegrees=yes

Units are S.I. units (second, meters, Newtons, ...)
Angles are in degrees.

endheader
time	pelvis_tilt	pelvis_list	pelvis_rotation	pelvis_tx	pelvis_ty	pelvis_tz	hip_flexion_r	hip_adduction_r	hip_rotation_r	knee_angle_r	knee_angle_r_beta	ankle_angle_r	subtalar_angle_r	mtp_angle_r	hip_flexion_l	hip_adduction_l	hip_rotation_l	knee_angle_l	knee_angle_l_beta	ankle_angle_l	subtalar_angle_l	mtp_angle_l	lumbar_extension	lumbar_bending	lumbar_rotation	arm_flex_r	arm_add_r	arm_rot_r	elbow_flex_r	pro_sup_r	wrist_flex_r	wrist_dev_r	arm_flex_l	arm_add_l	arm_rot_l	elbow_flex_l	pro_sup_l	wrist_flex_l	wrist_dev_l
      0.71000000	     -2.26998007	      4.56458389	     -1.08344709	     -0.46788314	      0.94153032	     -1.40139187	     -8.33453962	     -7.77399852	    -19.51305532	    -17.98718423	     -0.31393559	     12.42405039	      6.93789864	    -14.42168747	     22.07717102	      1.26413090	     19.99828037	    -11.76864656	     -0.20540163	     -3.25918292	      1.37229967	      5.30588667	     -2.21252878	     -6.90663723	      7.21628784	     13.21353006	    -10.96510756	     -9.96571015	     27.21275546	     89.95437384	      0.00000000	      0.00000000	     -6.65895879	      8.99822592	      2.90203796	     16.42181985	     89.95437384	      0.00000000	      0.00000000
      0.72000000	     -1.71965149	      5.59876059	     -1.41865366	     -0.45680058	      0.94127841	     -1.40500624	     -9.28397942	     -9.71364179	    -20.69853337	    -18.87804977	     -0.32948412	     12.67071294	      9.36424649	    -15.65850681	     20.73013344	     -0.11890855	     20.53853197	    -11.44165004	     -0.19969447	     -4.41722650	      1.99417516	      5.65480362	     -2.43751074	     -7.94682857	      7.20671345	     12.61385940	    -10.76664589	     -9.67056128	     27.19878407	     89.95437384	      0.00000000	      0.00000000	     -6.22874857	      8.98519902	      3.06360104	     15.82725479	     89.95437384	      0.00000000	      0.00000000
      0.73000000	     -1.50594263	      6.09813600	     -1.69268843	     -0.44620622	      0.94066720	     -1.40821383	     -9.82883546	    -10.72942627	    -20.57821840	    -19.57193761	     -0.34159475	     12.28383120	      9.14091618	    -15.75424908	     19.93655687	     -0.77568628	     21.09087946	    -11.10193884	     -0.19376539	     -6.81513034	      1.74979380	      6.08550438	     -2.34118961	     -8.42218578	      7.14113795	     12.00765871	    -10.50149849	     -9.79950660	     27.13058623	     89.95437384	      0.00000000	      0.00000000	     -5.92875037	      8.94680027	      3.20212192	     15.49310238	     89.95437384	      0.00000000	      0.00000000
      0.74000000	     -1.16515331	      6.84536292	     -1.94774433	     -0.43569189	      0.94050610	     -1.41178217	    -10.45984454	    -12.16062729	    -20.84348095	    -20.40930479	     -0.35620957	     11.96583823	      9.90467016	    -16.24682076	     19.14333547	     -1.65693689	     21.71689935	    -10.87904340	     -0.18987513	     -8.08482087	      1.20225713	      5.42533273	     -2.41873797	     -9.15644128	      7.05594999	     11.44938457	    -10.37094391	     -9.31096179	     26.88446275	     89.95437384	      0.00000000	      0.00000000	     -5.63570588	      8.93508876	      3.48354254	     15.38814952	     89.95437384	      0.00000000	      0.00000000
      0.75000000	     -1.03647409	      7.26072123	     -1.95221315	     -0.42560634	      0.94024452	     -1.41539452	    -10.82257726	    -13.03034068	    -20.72878533	    -21.25403105	     -0.37095282	     11.20854360	      9.43290549	    -15.89873429	     19.03731736	     -2.10321436	     22.24269319	    -11.93293763	     -0.20826905	     -8.04972585	      1.63882634	      5.14322916	     -2.32520484	     -9.53926446	      6.72849608	     10.94686720	    -10.11754947	     -9.31270409	     26.55759185	     89.95437384	      0.00000000	      0.00000000	     -5.21232179	      8.92329297	      3.35649701	     15.00859076	     89.95437384	      0.00000000	      0.00000000
      0.76000000	     -0.94028327	      8.19553790	     -2.28361565	     -0.41521244	      0.94013458	     -1.41928090	    -10.77478917	    -14.85022215	    -20.93491738	    -22.81672525	     -0.39822698	     10.64919206	     10.19392883	    -15.96164170	     18.81257854	     -3.13286488	     22.39051878	    -13.06851318	     -0.22808858	     -7.59755426	      1.31069752	      3.97508638	     -2.09602743	    -10.45212724	      6.74246267	     10.46516083	     -9.71423453	    -10.06531230	     26.05775642	     89.95437384	      0.00000000	      0.00000000	     -4.85505821	      8.85322315	      3.78581213	     14.76145439	     89.95437384	      0.00000000	      0.00000000
      0.77000000	     -0.86055813	      8.61761821	     -2.25671517	     -0.40531330	      0.94044668	     -1.42299734	    -10.84853721	    -15.71820265	    -20.44448379	    -23.97673552	     -0.41847298	      9.63170867	      9.51869938	    -15.37789221	     18.82222834	     -3.70111175	     21.44068896	    -14.51748568	     -0.25337792	     -6.88817155	      0.89941587	      3.55738726	     -1.99395153	    -10.83616159	      6.43345071	      9.85992878	     -9.51898565	    -10.02033507	     25.74626053	     89.95437384	      0.00000000	      0.00000000	     -4.46831511	      8.87408858	      3.67021378	     14.68953133	     89.95437384	      0.00000000	      0.00000000
      0.78000000	     -0.75829088	      8.99133673	     -2.26524382	     -0.39482715	      0.94099814	     -1.42661211	    -10.79521832	    -16.69871524	    -20.55064145	    -25.47073872	     -0.44454825	      8.29919295	      8.93825225	    -14.83295468	     18.68388880	     -4.23252710	     20.90988969	    -15.74312929	     -0.27476944	     -5.88123046	      0.85540528	      3.08395868	     -1.82678186	    -11.15201479	      6.14622428	      9.25783363	     -9.26002140	    -10.13694949	     25.19340656	     89.95437384	      0.00000000	      0.00000000	     -3.99072198	      8.84536477	      3.55277157	     14.24246174	     89.95437384	      0.00000000	      0.00000000
      0.79000000	     -1.09532690	      9.82935475	     -2.20320313	     -0.38464501	      0.94108288	     -1.43095311	     -9.95200348	    -18.50769297	    -21.07191679	    -27.62763240	     -0.48219315	      7.04930991	      9.72471068	    -14.58546003	     18.75187829	     -5.72931476	     19.16175658	    -16.17775852	     -0.28235515	     -5.14175741	      3.78524993	      2.33701589	     -1.19818754	    -11.92379094	      5.94268606	      8.59514033	     -8.96124872	    -10.69696343	     24.57515605	     89.95437384	      0.00000000	      0.00000000	     -3.59470614	      8.85622782	      3.51820612	     14.03448310	     89.95437384	      0.00000000	      0.00000000
      0.80000000	     -0.87785951	      9.89855487	     -2.18881839	     -0.37430301	      0.94219812	     -1.43447820	     -9.77669741	    -19.07739781	    -20.58244134	    -29.31198048	     -0.51159057	      5.27253118	      9.05824699	    -13.92157076	     18.25024809	     -6.11209696	     18.41989295	    -17.00877486	     -0.29685912	     -4.31615536	      3.80684002	      2.05044720	     -1.20856858	    -11.90077027	      5.57756832	      7.86589062	     -8.79937164	    -10.72053219	     24.28879275	     89.95437384	      0.00000000	      0.00000000	     -3.24443048	      8.83255007	      3.32003049	     14.04432044	     89.95437384	      0.00000000	      0.00000000
      0.81000000	     -0.92821633	     10.83357477	     -2.11687886	     -0.36395008	      0.94316701	     -1.43904623	     -9.06744747	    -20.92272261	    -20.75264740	    -31.46592444	     -0.54918398	      2.98338226	      8.58464576	    -13.21098318	     17.49526263	     -7.99500697	     16.32727071	    -16.47837006	     -0.28760181	     -3.48175819	      7.14989203	      2.06202059	     -0.86190651	    -12.75592265	      5.38306128	      7.10841948	     -8.65432791	    -10.98180823	     23.74336767	     89.95437384	      0.00000000	      0.00000000	     -2.73340111	      8.91438464	      2.47583479	     13.81977362	     89.95437384	      0.00000000	      0.00000000
      0.82000000	     -0.77374066	     11.04573585	     -2.12120229	     -0.35378085	      0.94443994	     -1.44255764	     -8.55452293	    -21.71359358	    -20.23906710	    -33.28091760	     -0.58086159	      0.47357964	      7.90329446	    -12.46904961	     16.66131253	     -8.59727269	     16.00313143	    -16.55020086	     -0.28885550	     -2.60692683	      7.26570077	      1.91415257	     -0.79746993	    -12.87745418	      5.08457139	      6.39973825	     -8.52918315	    -10.89909758	     23.32270069	     89.95437384	      0.00000000	      0.00000000	     -2.22537464	      8.93821861	      2.17301801	     13.67501512	     89.95437384	      0.00000000	      0.00000000
      0.83000000	     -0.65022448	     11.38760943	     -2.15564433	     -0.34412592	      0.94570545	     -1.44608488	     -7.75023358	    -22.68941417	    -19.63306848	    -35.34624130	     -0.61690829	     -2.39906463	      7.02620682	    -11.67763463	     15.71287445	     -9.41704997	     15.61039836	    -16.18212823	     -0.28243142	     -2.00846847	      7.68453052	      1.91005476	     -0.74285845	    -13.13530770	      4.85462062	      5.74589015	     -8.48267183	    -10.64507085	     22.77938779	     89.95437384	      0.00000000	      0.00000000	     -1.66054856	      8.97654411	      1.75416744	     13.64178158	     89.95437384	      0.00000000	      0.00000000
      0.84000000	     -0.47890345	     11.30731000	     -2.03193612	     -0.33502828	      0.94702464	     -1.44938974	     -6.92761910	    -23.05189577	    -18.88695663	    -37.46757461	     -0.65393254	     -4.61396363	      6.47567656	    -11.04898967	     14.79726334	     -9.70224171	     15.15103843	    -16.05476655	     -0.28020854	     -1.51417183	      7.63094669	      1.85753631	     -0.91389801	    -12.94694511	      4.42558869	      5.08908111	     -8.49469258	    -10.35544200	     22.43518015	     89.95437384	      0.00000000	      0.00000000	     -1.07669656	      9.00884217	      1.37403235	     13.81821500	     89.95437384	      0.00000000	      0.00000000
      0.85000000	     -0.61478944	     11.69549538	     -2.02903654	     -0.32612871	      0.94791331	     -1.45308067	     -5.56181537	    -23.91559897	    -17.76202937	    -39.49525636	     -0.68932226	     -7.65530302	      5.30480426	    -10.24580609	     14.07775388	    -10.54762476	     14.77587954	    -15.47320526	     -0.27005838	     -1.06291788	      7.95619604	      1.90084625	     -0.62870681	    -13.22697999	      4.17608104	      4.47692410	     -8.47687658	    -10.03359701	     21.92283926	     89.95437384	      0.00000000	      0.00000000	     -0.44671472	      9.08123147	      0.80061003	     13.75807232	     89.95437384	      0.00000000	      0.00000000
      0.86000000	     -1.02421137	     11.94375675	     -1.97530418	     -0.31803695	      0.94824233	     -1.45640031	     -3.61158245	    -24.50332323	    -16.44016253	    -41.89216840	     -0.73115627	     -9.92307987	      3.36537327	     -9.43321767	     13.79517672	    -11.20770962	     14.15107581	    -15.03712050	     -0.26244726	     -0.96412691	      9.00942064	      2.17671717	     -0.16416925	    -13.36889426	      3.97336112	      3.82391285	     -8.48328926	     -9.72801510	     21.58314694	     89.95437384	      0.00000000	      0.00000000	      0.09792145	      9.26530980	     -0.06942717	     14.06121555	     89.95437384	      0.00000000	      0.00000000
      0.87000000	     -0.90802169	     11.62945026	     -1.86746586	     -0.30989447	      0.94923645	     -1.45936663	     -2.48142326	    -24.44743852	    -15.60011172	    -43.98522764	     -0.76768704	    -10.77308901	      2.95976121	     -9.13948139	     13.01753296	    -11.14233276	     13.84091365	    -14.96199256	     -0.26113603	     -0.48141059	      8.74326708	      2.08262475	     -0.38740720	    -12.92577193	      3.50859158	      3.34123858	     -8.50770701	     -9.63777220	     21.19549467	     89.95437384	      0.00000000	      0.00000000	      0.74458707	      9.32878137	     -0.26320561	     14.34986806	     89.95437384	      0.00000000	      0.00000000
